<?xml version="1.0" encoding="utf-8" standalone="no"?>
<!DOCTYPE svg PUBLIC "-//W3C//DTD SVG 1.1//EN"
  "http://www.w3.org/Graphics/SVG/1.1/DTD/svg11.dtd">
<!-- Created with matplotlib (https://matplotlib.org/) -->
<svg height="345.6pt" version="1.1" viewBox="0 0 460.8 345.6" width="460.8pt" xmlns="http://www.w3.org/2000/svg" xmlns:xlink="http://www.w3.org/1999/xlink">
 <defs>
  <style type="text/css">
*{stroke-linecap:butt;stroke-linejoin:round;}
  </style>
 </defs>
 <g id="figure_1">
  <g id="patch_1">
   <path d="M 0 345.6 
L 460.8 345.6 
L 460.8 0 
L 0 0 
z
" style="fill:#ffffff;"/>
  </g>
  <g id="axes_1">
   <g id="patch_2">
    <path d="M 57.6 307.584 
L 414.72 307.584 
L 414.72 41.472 
L 57.6 41.472 
z
" style="fill:#ffffff;"/>
   </g>
   <g id="matplotlib.axis_1">
    <g id="xtick_1">
     <g id="line2d_1">
      <path clip-path="url(#pfa3ee6a9b3)" d="M 66.925184 307.584 
L 66.925184 41.472 
" style="fill:none;stroke:#b0b0b0;stroke-linecap:square;stroke-width:0.8;"/>
     </g>
     <g id="line2d_2">
      <defs>
       <path d="M 0 0 
L 0 3.5 
" id="m02c2743f8d" style="stroke:#000000;stroke-width:0.8;"/>
      </defs>
      <g>
       <use style="stroke:#000000;stroke-width:0.8;" x="66.925184" xlink:href="#m02c2743f8d" y="307.584"/>
      </g>
     </g>
     <g id="text_1">
      <!-- 0 -->
      <defs>
       <path d="M 31.78125 66.40625 
Q 24.171875 66.40625 20.328125 58.90625 
Q 16.5 51.421875 16.5 36.375 
Q 16.5 21.390625 20.328125 13.890625 
Q 24.171875 6.390625 31.78125 6.390625 
Q 39.453125 6.390625 43.28125 13.890625 
Q 47.125 21.390625 47.125 36.375 
Q 47.125 51.421875 43.28125 58.90625 
Q 39.453125 66.40625 31.78125 66.40625 
z
M 31.78125 74.21875 
Q 44.046875 74.21875 50.515625 64.515625 
Q 56.984375 54.828125 56.984375 36.375 
Q 56.984375 17.96875 50.515625 8.265625 
Q 44.046875 -1.421875 31.78125 -1.421875 
Q 19.53125 -1.421875 13.0625 8.265625 
Q 6.59375 17.96875 6.59375 36.375 
Q 6.59375 54.828125 13.0625 64.515625 
Q 19.53125 74.21875 31.78125 74.21875 
z
" id="DejaVuSans-48"/>
      </defs>
      <g transform="translate(63.743934 322.182437)scale(0.1 -0.1)">
       <use xlink:href="#DejaVuSans-48"/>
      </g>
     </g>
    </g>
    <g id="xtick_2">
     <g id="line2d_3">
      <path clip-path="url(#pfa3ee6a9b3)" d="M 136.000619 307.584 
L 136.000619 41.472 
" style="fill:none;stroke:#b0b0b0;stroke-linecap:square;stroke-width:0.8;"/>
     </g>
     <g id="line2d_4">
      <g>
       <use style="stroke:#000000;stroke-width:0.8;" x="136.000619" xlink:href="#m02c2743f8d" y="307.584"/>
      </g>
     </g>
     <g id="text_2">
      <!-- 10 -->
      <defs>
       <path d="M 12.40625 8.296875 
L 28.515625 8.296875 
L 28.515625 63.921875 
L 10.984375 60.40625 
L 10.984375 69.390625 
L 28.421875 72.90625 
L 38.28125 72.90625 
L 38.28125 8.296875 
L 54.390625 8.296875 
L 54.390625 0 
L 12.40625 0 
z
" id="DejaVuSans-49"/>
      </defs>
      <g transform="translate(129.638119 322.182437)scale(0.1 -0.1)">
       <use xlink:href="#DejaVuSans-49"/>
       <use x="63.623047" xlink:href="#DejaVuSans-48"/>
      </g>
     </g>
    </g>
    <g id="xtick_3">
     <g id="line2d_5">
      <path clip-path="url(#pfa3ee6a9b3)" d="M 205.076054 307.584 
L 205.076054 41.472 
" style="fill:none;stroke:#b0b0b0;stroke-linecap:square;stroke-width:0.8;"/>
     </g>
     <g id="line2d_6">
      <g>
       <use style="stroke:#000000;stroke-width:0.8;" x="205.076054" xlink:href="#m02c2743f8d" y="307.584"/>
      </g>
     </g>
     <g id="text_3">
      <!-- 20 -->
      <defs>
       <path d="M 19.1875 8.296875 
L 53.609375 8.296875 
L 53.609375 0 
L 7.328125 0 
L 7.328125 8.296875 
Q 12.9375 14.109375 22.625 23.890625 
Q 32.328125 33.6875 34.8125 36.53125 
Q 39.546875 41.84375 41.421875 45.53125 
Q 43.3125 49.21875 43.3125 52.78125 
Q 43.3125 58.59375 39.234375 62.25 
Q 35.15625 65.921875 28.609375 65.921875 
Q 23.96875 65.921875 18.8125 64.3125 
Q 13.671875 62.703125 7.8125 59.421875 
L 7.8125 69.390625 
Q 13.765625 71.78125 18.9375 73 
Q 24.125 74.21875 28.421875 74.21875 
Q 39.75 74.21875 46.484375 68.546875 
Q 53.21875 62.890625 53.21875 53.421875 
Q 53.21875 48.921875 51.53125 44.890625 
Q 49.859375 40.875 45.40625 35.40625 
Q 44.1875 33.984375 37.640625 27.21875 
Q 31.109375 20.453125 19.1875 8.296875 
z
" id="DejaVuSans-50"/>
      </defs>
      <g transform="translate(198.713554 322.182437)scale(0.1 -0.1)">
       <use xlink:href="#DejaVuSans-50"/>
       <use x="63.623047" xlink:href="#DejaVuSans-48"/>
      </g>
     </g>
    </g>
    <g id="xtick_4">
     <g id="line2d_7">
      <path clip-path="url(#pfa3ee6a9b3)" d="M 274.151489 307.584 
L 274.151489 41.472 
" style="fill:none;stroke:#b0b0b0;stroke-linecap:square;stroke-width:0.8;"/>
     </g>
     <g id="line2d_8">
      <g>
       <use style="stroke:#000000;stroke-width:0.8;" x="274.151489" xlink:href="#m02c2743f8d" y="307.584"/>
      </g>
     </g>
     <g id="text_4">
      <!-- 30 -->
      <defs>
       <path d="M 40.578125 39.3125 
Q 47.65625 37.796875 51.625 33 
Q 55.609375 28.21875 55.609375 21.1875 
Q 55.609375 10.40625 48.1875 4.484375 
Q 40.765625 -1.421875 27.09375 -1.421875 
Q 22.515625 -1.421875 17.65625 -0.515625 
Q 12.796875 0.390625 7.625 2.203125 
L 7.625 11.71875 
Q 11.71875 9.328125 16.59375 8.109375 
Q 21.484375 6.890625 26.8125 6.890625 
Q 36.078125 6.890625 40.9375 10.546875 
Q 45.796875 14.203125 45.796875 21.1875 
Q 45.796875 27.640625 41.28125 31.265625 
Q 36.765625 34.90625 28.71875 34.90625 
L 20.21875 34.90625 
L 20.21875 43.015625 
L 29.109375 43.015625 
Q 36.375 43.015625 40.234375 45.921875 
Q 44.09375 48.828125 44.09375 54.296875 
Q 44.09375 59.90625 40.109375 62.90625 
Q 36.140625 65.921875 28.71875 65.921875 
Q 24.65625 65.921875 20.015625 65.03125 
Q 15.375 64.15625 9.8125 62.3125 
L 9.8125 71.09375 
Q 15.4375 72.65625 20.34375 73.4375 
Q 25.25 74.21875 29.59375 74.21875 
Q 40.828125 74.21875 47.359375 69.109375 
Q 53.90625 64.015625 53.90625 55.328125 
Q 53.90625 49.265625 50.4375 45.09375 
Q 46.96875 40.921875 40.578125 39.3125 
z
" id="DejaVuSans-51"/>
      </defs>
      <g transform="translate(267.788989 322.182437)scale(0.1 -0.1)">
       <use xlink:href="#DejaVuSans-51"/>
       <use x="63.623047" xlink:href="#DejaVuSans-48"/>
      </g>
     </g>
    </g>
    <g id="xtick_5">
     <g id="line2d_9">
      <path clip-path="url(#pfa3ee6a9b3)" d="M 343.226925 307.584 
L 343.226925 41.472 
" style="fill:none;stroke:#b0b0b0;stroke-linecap:square;stroke-width:0.8;"/>
     </g>
     <g id="line2d_10">
      <g>
       <use style="stroke:#000000;stroke-width:0.8;" x="343.226925" xlink:href="#m02c2743f8d" y="307.584"/>
      </g>
     </g>
     <g id="text_5">
      <!-- 40 -->
      <defs>
       <path d="M 37.796875 64.3125 
L 12.890625 25.390625 
L 37.796875 25.390625 
z
M 35.203125 72.90625 
L 47.609375 72.90625 
L 47.609375 25.390625 
L 58.015625 25.390625 
L 58.015625 17.1875 
L 47.609375 17.1875 
L 47.609375 0 
L 37.796875 0 
L 37.796875 17.1875 
L 4.890625 17.1875 
L 4.890625 26.703125 
z
" id="DejaVuSans-52"/>
      </defs>
      <g transform="translate(336.864425 322.182437)scale(0.1 -0.1)">
       <use xlink:href="#DejaVuSans-52"/>
       <use x="63.623047" xlink:href="#DejaVuSans-48"/>
      </g>
     </g>
    </g>
    <g id="xtick_6">
     <g id="line2d_11">
      <path clip-path="url(#pfa3ee6a9b3)" d="M 412.30236 307.584 
L 412.30236 41.472 
" style="fill:none;stroke:#b0b0b0;stroke-linecap:square;stroke-width:0.8;"/>
     </g>
     <g id="line2d_12">
      <g>
       <use style="stroke:#000000;stroke-width:0.8;" x="412.30236" xlink:href="#m02c2743f8d" y="307.584"/>
      </g>
     </g>
     <g id="text_6">
      <!-- 50 -->
      <defs>
       <path d="M 10.796875 72.90625 
L 49.515625 72.90625 
L 49.515625 64.59375 
L 19.828125 64.59375 
L 19.828125 46.734375 
Q 21.96875 47.46875 24.109375 47.828125 
Q 26.265625 48.1875 28.421875 48.1875 
Q 40.625 48.1875 47.75 41.5 
Q 54.890625 34.8125 54.890625 23.390625 
Q 54.890625 11.625 47.5625 5.09375 
Q 40.234375 -1.421875 26.90625 -1.421875 
Q 22.3125 -1.421875 17.546875 -0.640625 
Q 12.796875 0.140625 7.71875 1.703125 
L 7.71875 11.625 
Q 12.109375 9.234375 16.796875 8.0625 
Q 21.484375 6.890625 26.703125 6.890625 
Q 35.15625 6.890625 40.078125 11.328125 
Q 45.015625 15.765625 45.015625 23.390625 
Q 45.015625 31 40.078125 35.4375 
Q 35.15625 39.890625 26.703125 39.890625 
Q 22.75 39.890625 18.8125 39.015625 
Q 14.890625 38.140625 10.796875 36.28125 
z
" id="DejaVuSans-53"/>
      </defs>
      <g transform="translate(405.93986 322.182437)scale(0.1 -0.1)">
       <use xlink:href="#DejaVuSans-53"/>
       <use x="63.623047" xlink:href="#DejaVuSans-48"/>
      </g>
     </g>
    </g>
    <g id="text_7">
     <!-- number of threads -->
     <defs>
      <path d="M 54.890625 33.015625 
L 54.890625 0 
L 45.90625 0 
L 45.90625 32.71875 
Q 45.90625 40.484375 42.875 44.328125 
Q 39.84375 48.1875 33.796875 48.1875 
Q 26.515625 48.1875 22.3125 43.546875 
Q 18.109375 38.921875 18.109375 30.90625 
L 18.109375 0 
L 9.078125 0 
L 9.078125 54.6875 
L 18.109375 54.6875 
L 18.109375 46.1875 
Q 21.34375 51.125 25.703125 53.5625 
Q 30.078125 56 35.796875 56 
Q 45.21875 56 50.046875 50.171875 
Q 54.890625 44.34375 54.890625 33.015625 
z
" id="DejaVuSans-110"/>
      <path d="M 8.5 21.578125 
L 8.5 54.6875 
L 17.484375 54.6875 
L 17.484375 21.921875 
Q 17.484375 14.15625 20.5 10.265625 
Q 23.53125 6.390625 29.59375 6.390625 
Q 36.859375 6.390625 41.078125 11.03125 
Q 45.3125 15.671875 45.3125 23.6875 
L 45.3125 54.6875 
L 54.296875 54.6875 
L 54.296875 0 
L 45.3125 0 
L 45.3125 8.40625 
Q 42.046875 3.421875 37.71875 1 
Q 33.40625 -1.421875 27.6875 -1.421875 
Q 18.265625 -1.421875 13.375 4.4375 
Q 8.5 10.296875 8.5 21.578125 
z
M 31.109375 56 
z
" id="DejaVuSans-117"/>
      <path d="M 52 44.1875 
Q 55.375 50.25 60.0625 53.125 
Q 64.75 56 71.09375 56 
Q 79.640625 56 84.28125 50.015625 
Q 88.921875 44.046875 88.921875 33.015625 
L 88.921875 0 
L 79.890625 0 
L 79.890625 32.71875 
Q 79.890625 40.578125 77.09375 44.375 
Q 74.3125 48.1875 68.609375 48.1875 
Q 61.625 48.1875 57.5625 43.546875 
Q 53.515625 38.921875 53.515625 30.90625 
L 53.515625 0 
L 44.484375 0 
L 44.484375 32.71875 
Q 44.484375 40.625 41.703125 44.40625 
Q 38.921875 48.1875 33.109375 48.1875 
Q 26.21875 48.1875 22.15625 43.53125 
Q 18.109375 38.875 18.109375 30.90625 
L 18.109375 0 
L 9.078125 0 
L 9.078125 54.6875 
L 18.109375 54.6875 
L 18.109375 46.1875 
Q 21.1875 51.21875 25.484375 53.609375 
Q 29.78125 56 35.6875 56 
Q 41.65625 56 45.828125 52.96875 
Q 50 49.953125 52 44.1875 
z
" id="DejaVuSans-109"/>
      <path d="M 48.6875 27.296875 
Q 48.6875 37.203125 44.609375 42.84375 
Q 40.53125 48.484375 33.40625 48.484375 
Q 26.265625 48.484375 22.1875 42.84375 
Q 18.109375 37.203125 18.109375 27.296875 
Q 18.109375 17.390625 22.1875 11.75 
Q 26.265625 6.109375 33.40625 6.109375 
Q 40.53125 6.109375 44.609375 11.75 
Q 48.6875 17.390625 48.6875 27.296875 
z
M 18.109375 46.390625 
Q 20.953125 51.265625 25.265625 53.625 
Q 29.59375 56 35.59375 56 
Q 45.5625 56 51.78125 48.09375 
Q 58.015625 40.1875 58.015625 27.296875 
Q 58.015625 14.40625 51.78125 6.484375 
Q 45.5625 -1.421875 35.59375 -1.421875 
Q 29.59375 -1.421875 25.265625 0.953125 
Q 20.953125 3.328125 18.109375 8.203125 
L 18.109375 0 
L 9.078125 0 
L 9.078125 75.984375 
L 18.109375 75.984375 
z
" id="DejaVuSans-98"/>
      <path d="M 56.203125 29.59375 
L 56.203125 25.203125 
L 14.890625 25.203125 
Q 15.484375 15.921875 20.484375 11.0625 
Q 25.484375 6.203125 34.421875 6.203125 
Q 39.59375 6.203125 44.453125 7.46875 
Q 49.3125 8.734375 54.109375 11.28125 
L 54.109375 2.78125 
Q 49.265625 0.734375 44.1875 -0.34375 
Q 39.109375 -1.421875 33.890625 -1.421875 
Q 20.796875 -1.421875 13.15625 6.1875 
Q 5.515625 13.8125 5.515625 26.8125 
Q 5.515625 40.234375 12.765625 48.109375 
Q 20.015625 56 32.328125 56 
Q 43.359375 56 49.78125 48.890625 
Q 56.203125 41.796875 56.203125 29.59375 
z
M 47.21875 32.234375 
Q 47.125 39.59375 43.09375 43.984375 
Q 39.0625 48.390625 32.421875 48.390625 
Q 24.90625 48.390625 20.390625 44.140625 
Q 15.875 39.890625 15.1875 32.171875 
z
" id="DejaVuSans-101"/>
      <path d="M 41.109375 46.296875 
Q 39.59375 47.171875 37.8125 47.578125 
Q 36.03125 48 33.890625 48 
Q 26.265625 48 22.1875 43.046875 
Q 18.109375 38.09375 18.109375 28.8125 
L 18.109375 0 
L 9.078125 0 
L 9.078125 54.6875 
L 18.109375 54.6875 
L 18.109375 46.1875 
Q 20.953125 51.171875 25.484375 53.578125 
Q 30.03125 56 36.53125 56 
Q 37.453125 56 38.578125 55.875 
Q 39.703125 55.765625 41.0625 55.515625 
z
" id="DejaVuSans-114"/>
      <path id="DejaVuSans-32"/>
      <path d="M 30.609375 48.390625 
Q 23.390625 48.390625 19.1875 42.75 
Q 14.984375 37.109375 14.984375 27.296875 
Q 14.984375 17.484375 19.15625 11.84375 
Q 23.34375 6.203125 30.609375 6.203125 
Q 37.796875 6.203125 41.984375 11.859375 
Q 46.1875 17.53125 46.1875 27.296875 
Q 46.1875 37.015625 41.984375 42.703125 
Q 37.796875 48.390625 30.609375 48.390625 
z
M 30.609375 56 
Q 42.328125 56 49.015625 48.375 
Q 55.71875 40.765625 55.71875 27.296875 
Q 55.71875 13.875 49.015625 6.21875 
Q 42.328125 -1.421875 30.609375 -1.421875 
Q 18.84375 -1.421875 12.171875 6.21875 
Q 5.515625 13.875 5.515625 27.296875 
Q 5.515625 40.765625 12.171875 48.375 
Q 18.84375 56 30.609375 56 
z
" id="DejaVuSans-111"/>
      <path d="M 37.109375 75.984375 
L 37.109375 68.5 
L 28.515625 68.5 
Q 23.6875 68.5 21.796875 66.546875 
Q 19.921875 64.59375 19.921875 59.515625 
L 19.921875 54.6875 
L 34.71875 54.6875 
L 34.71875 47.703125 
L 19.921875 47.703125 
L 19.921875 0 
L 10.890625 0 
L 10.890625 47.703125 
L 2.296875 47.703125 
L 2.296875 54.6875 
L 10.890625 54.6875 
L 10.890625 58.5 
Q 10.890625 67.625 15.140625 71.796875 
Q 19.390625 75.984375 28.609375 75.984375 
z
" id="DejaVuSans-102"/>
      <path d="M 18.3125 70.21875 
L 18.3125 54.6875 
L 36.8125 54.6875 
L 36.8125 47.703125 
L 18.3125 47.703125 
L 18.3125 18.015625 
Q 18.3125 11.328125 20.140625 9.421875 
Q 21.96875 7.515625 27.59375 7.515625 
L 36.8125 7.515625 
L 36.8125 0 
L 27.59375 0 
Q 17.1875 0 13.234375 3.875 
Q 9.28125 7.765625 9.28125 18.015625 
L 9.28125 47.703125 
L 2.6875 47.703125 
L 2.6875 54.6875 
L 9.28125 54.6875 
L 9.28125 70.21875 
z
" id="DejaVuSans-116"/>
      <path d="M 54.890625 33.015625 
L 54.890625 0 
L 45.90625 0 
L 45.90625 32.71875 
Q 45.90625 40.484375 42.875 44.328125 
Q 39.84375 48.1875 33.796875 48.1875 
Q 26.515625 48.1875 22.3125 43.546875 
Q 18.109375 38.921875 18.109375 30.90625 
L 18.109375 0 
L 9.078125 0 
L 9.078125 75.984375 
L 18.109375 75.984375 
L 18.109375 46.1875 
Q 21.34375 51.125 25.703125 53.5625 
Q 30.078125 56 35.796875 56 
Q 45.21875 56 50.046875 50.171875 
Q 54.890625 44.34375 54.890625 33.015625 
z
" id="DejaVuSans-104"/>
      <path d="M 34.28125 27.484375 
Q 23.390625 27.484375 19.1875 25 
Q 14.984375 22.515625 14.984375 16.5 
Q 14.984375 11.71875 18.140625 8.90625 
Q 21.296875 6.109375 26.703125 6.109375 
Q 34.1875 6.109375 38.703125 11.40625 
Q 43.21875 16.703125 43.21875 25.484375 
L 43.21875 27.484375 
z
M 52.203125 31.203125 
L 52.203125 0 
L 43.21875 0 
L 43.21875 8.296875 
Q 40.140625 3.328125 35.546875 0.953125 
Q 30.953125 -1.421875 24.3125 -1.421875 
Q 15.921875 -1.421875 10.953125 3.296875 
Q 6 8.015625 6 15.921875 
Q 6 25.140625 12.171875 29.828125 
Q 18.359375 34.515625 30.609375 34.515625 
L 43.21875 34.515625 
L 43.21875 35.40625 
Q 43.21875 41.609375 39.140625 45 
Q 35.0625 48.390625 27.6875 48.390625 
Q 23 48.390625 18.546875 47.265625 
Q 14.109375 46.140625 10.015625 43.890625 
L 10.015625 52.203125 
Q 14.9375 54.109375 19.578125 55.046875 
Q 24.21875 56 28.609375 56 
Q 40.484375 56 46.34375 49.84375 
Q 52.203125 43.703125 52.203125 31.203125 
z
" id="DejaVuSans-97"/>
      <path d="M 45.40625 46.390625 
L 45.40625 75.984375 
L 54.390625 75.984375 
L 54.390625 0 
L 45.40625 0 
L 45.40625 8.203125 
Q 42.578125 3.328125 38.25 0.953125 
Q 33.9375 -1.421875 27.875 -1.421875 
Q 17.96875 -1.421875 11.734375 6.484375 
Q 5.515625 14.40625 5.515625 27.296875 
Q 5.515625 40.1875 11.734375 48.09375 
Q 17.96875 56 27.875 56 
Q 33.9375 56 38.25 53.625 
Q 42.578125 51.265625 45.40625 46.390625 
z
M 14.796875 27.296875 
Q 14.796875 17.390625 18.875 11.75 
Q 22.953125 6.109375 30.078125 6.109375 
Q 37.203125 6.109375 41.296875 11.75 
Q 45.40625 17.390625 45.40625 27.296875 
Q 45.40625 37.203125 41.296875 42.84375 
Q 37.203125 48.484375 30.078125 48.484375 
Q 22.953125 48.484375 18.875 42.84375 
Q 14.796875 37.203125 14.796875 27.296875 
z
" id="DejaVuSans-100"/>
      <path d="M 44.28125 53.078125 
L 44.28125 44.578125 
Q 40.484375 46.53125 36.375 47.5 
Q 32.28125 48.484375 27.875 48.484375 
Q 21.1875 48.484375 17.84375 46.4375 
Q 14.5 44.390625 14.5 40.28125 
Q 14.5 37.15625 16.890625 35.375 
Q 19.28125 33.59375 26.515625 31.984375 
L 29.59375 31.296875 
Q 39.15625 29.25 43.1875 25.515625 
Q 47.21875 21.78125 47.21875 15.09375 
Q 47.21875 7.46875 41.1875 3.015625 
Q 35.15625 -1.421875 24.609375 -1.421875 
Q 20.21875 -1.421875 15.453125 -0.5625 
Q 10.6875 0.296875 5.421875 2 
L 5.421875 11.28125 
Q 10.40625 8.6875 15.234375 7.390625 
Q 20.0625 6.109375 24.8125 6.109375 
Q 31.15625 6.109375 34.5625 8.28125 
Q 37.984375 10.453125 37.984375 14.40625 
Q 37.984375 18.0625 35.515625 20.015625 
Q 33.0625 21.96875 24.703125 23.78125 
L 21.578125 24.515625 
Q 13.234375 26.265625 9.515625 29.90625 
Q 5.8125 33.546875 5.8125 39.890625 
Q 5.8125 47.609375 11.28125 51.796875 
Q 16.75 56 26.8125 56 
Q 31.78125 56 36.171875 55.265625 
Q 40.578125 54.546875 44.28125 53.078125 
z
" id="DejaVuSans-115"/>
     </defs>
     <g transform="translate(189.656875 335.860562)scale(0.1 -0.1)">
      <use xlink:href="#DejaVuSans-110"/>
      <use x="63.378906" xlink:href="#DejaVuSans-117"/>
      <use x="126.757812" xlink:href="#DejaVuSans-109"/>
      <use x="224.169922" xlink:href="#DejaVuSans-98"/>
      <use x="287.646484" xlink:href="#DejaVuSans-101"/>
      <use x="349.169922" xlink:href="#DejaVuSans-114"/>
      <use x="390.283203" xlink:href="#DejaVuSans-32"/>
      <use x="422.070312" xlink:href="#DejaVuSans-111"/>
      <use x="483.251953" xlink:href="#DejaVuSans-102"/>
      <use x="518.457031" xlink:href="#DejaVuSans-32"/>
      <use x="550.244141" xlink:href="#DejaVuSans-116"/>
      <use x="589.453125" xlink:href="#DejaVuSans-104"/>
      <use x="652.832031" xlink:href="#DejaVuSans-114"/>
      <use x="691.695312" xlink:href="#DejaVuSans-101"/>
      <use x="753.21875" xlink:href="#DejaVuSans-97"/>
      <use x="814.498047" xlink:href="#DejaVuSans-100"/>
      <use x="877.974609" xlink:href="#DejaVuSans-115"/>
     </g>
    </g>
   </g>
   <g id="matplotlib.axis_2">
    <g id="ytick_1">
     <g id="line2d_13">
      <path clip-path="url(#pfa3ee6a9b3)" d="M 57.6 306.143742 
L 414.72 306.143742 
" style="fill:none;stroke:#b0b0b0;stroke-linecap:square;stroke-width:0.8;"/>
     </g>
     <g id="line2d_14">
      <defs>
       <path d="M 0 0 
L -3.5 0 
" id="m413d331af5" style="stroke:#000000;stroke-width:0.8;"/>
      </defs>
      <g>
       <use style="stroke:#000000;stroke-width:0.8;" x="57.6" xlink:href="#m413d331af5" y="306.143742"/>
      </g>
     </g>
     <g id="text_8">
      <!-- 0 -->
      <g transform="translate(44.2375 309.942961)scale(0.1 -0.1)">
       <use xlink:href="#DejaVuSans-48"/>
      </g>
     </g>
    </g>
    <g id="ytick_2">
     <g id="line2d_15">
      <path clip-path="url(#pfa3ee6a9b3)" d="M 57.6 252.865031 
L 414.72 252.865031 
" style="fill:none;stroke:#b0b0b0;stroke-linecap:square;stroke-width:0.8;"/>
     </g>
     <g id="line2d_16">
      <g>
       <use style="stroke:#000000;stroke-width:0.8;" x="57.6" xlink:href="#m413d331af5" y="252.865031"/>
      </g>
     </g>
     <g id="text_9">
      <!-- 5 -->
      <g transform="translate(44.2375 256.66425)scale(0.1 -0.1)">
       <use xlink:href="#DejaVuSans-53"/>
      </g>
     </g>
    </g>
    <g id="ytick_3">
     <g id="line2d_17">
      <path clip-path="url(#pfa3ee6a9b3)" d="M 57.6 199.58632 
L 414.72 199.58632 
" style="fill:none;stroke:#b0b0b0;stroke-linecap:square;stroke-width:0.8;"/>
     </g>
     <g id="line2d_18">
      <g>
       <use style="stroke:#000000;stroke-width:0.8;" x="57.6" xlink:href="#m413d331af5" y="199.58632"/>
      </g>
     </g>
     <g id="text_10">
      <!-- 10 -->
      <g transform="translate(37.875 203.385539)scale(0.1 -0.1)">
       <use xlink:href="#DejaVuSans-49"/>
       <use x="63.623047" xlink:href="#DejaVuSans-48"/>
      </g>
     </g>
    </g>
    <g id="ytick_4">
     <g id="line2d_19">
      <path clip-path="url(#pfa3ee6a9b3)" d="M 57.6 146.30761 
L 414.72 146.30761 
" style="fill:none;stroke:#b0b0b0;stroke-linecap:square;stroke-width:0.8;"/>
     </g>
     <g id="line2d_20">
      <g>
       <use style="stroke:#000000;stroke-width:0.8;" x="57.6" xlink:href="#m413d331af5" y="146.30761"/>
      </g>
     </g>
     <g id="text_11">
      <!-- 15 -->
      <g transform="translate(37.875 150.106828)scale(0.1 -0.1)">
       <use xlink:href="#DejaVuSans-49"/>
       <use x="63.623047" xlink:href="#DejaVuSans-53"/>
      </g>
     </g>
    </g>
    <g id="ytick_5">
     <g id="line2d_21">
      <path clip-path="url(#pfa3ee6a9b3)" d="M 57.6 93.028899 
L 414.72 93.028899 
" style="fill:none;stroke:#b0b0b0;stroke-linecap:square;stroke-width:0.8;"/>
     </g>
     <g id="line2d_22">
      <g>
       <use style="stroke:#000000;stroke-width:0.8;" x="57.6" xlink:href="#m413d331af5" y="93.028899"/>
      </g>
     </g>
     <g id="text_12">
      <!-- 20 -->
      <g transform="translate(37.875 96.828118)scale(0.1 -0.1)">
       <use xlink:href="#DejaVuSans-50"/>
       <use x="63.623047" xlink:href="#DejaVuSans-48"/>
      </g>
     </g>
    </g>
    <g id="text_13">
     <!-- speed-up -->
     <defs>
      <path d="M 18.109375 8.203125 
L 18.109375 -20.796875 
L 9.078125 -20.796875 
L 9.078125 54.6875 
L 18.109375 54.6875 
L 18.109375 46.390625 
Q 20.953125 51.265625 25.265625 53.625 
Q 29.59375 56 35.59375 56 
Q 45.5625 56 51.78125 48.09375 
Q 58.015625 40.1875 58.015625 27.296875 
Q 58.015625 14.40625 51.78125 6.484375 
Q 45.5625 -1.421875 35.59375 -1.421875 
Q 29.59375 -1.421875 25.265625 0.953125 
Q 20.953125 3.328125 18.109375 8.203125 
z
M 48.6875 27.296875 
Q 48.6875 37.203125 44.609375 42.84375 
Q 40.53125 48.484375 33.40625 48.484375 
Q 26.265625 48.484375 22.1875 42.84375 
Q 18.109375 37.203125 18.109375 27.296875 
Q 18.109375 17.390625 22.1875 11.75 
Q 26.265625 6.109375 33.40625 6.109375 
Q 40.53125 6.109375 44.609375 11.75 
Q 48.6875 17.390625 48.6875 27.296875 
z
" id="DejaVuSans-112"/>
      <path d="M 4.890625 31.390625 
L 31.203125 31.390625 
L 31.203125 23.390625 
L 4.890625 23.390625 
z
" id="DejaVuSans-45"/>
     </defs>
     <g transform="translate(31.795312 197.781125)rotate(-90)scale(0.1 -0.1)">
      <use xlink:href="#DejaVuSans-115"/>
      <use x="52.099609" xlink:href="#DejaVuSans-112"/>
      <use x="115.576172" xlink:href="#DejaVuSans-101"/>
      <use x="177.099609" xlink:href="#DejaVuSans-101"/>
      <use x="238.623047" xlink:href="#DejaVuSans-100"/>
      <use x="302.099609" xlink:href="#DejaVuSans-45"/>
      <use x="338.183594" xlink:href="#DejaVuSans-117"/>
      <use x="401.5625" xlink:href="#DejaVuSans-112"/>
     </g>
    </g>
   </g>
   <g id="line2d_23">
    <path clip-path="url(#pfa3ee6a9b3)" d="M 73.832727 295.488 
L 80.740271 292.529146 
L 87.647814 291.318362 
L 94.555358 290.580169 
L 101.462901 290.045797 
L 108.370445 289.436298 
L 115.277988 289.055718 
L 122.185532 288.93814 
L 129.093075 292.40447 
L 136.000619 289.835824 
L 142.908162 288.534253 
L 149.815706 288.325114 
L 156.72325 288.240061 
L 163.630793 288.325114 
L 170.538337 288.154192 
L 177.44588 288.110948 
L 184.353424 288.023833 
L 191.260967 287.979959 
L 198.168511 287.891571 
L 205.076054 288.023833 
L 211.983598 287.979959 
L 218.891141 287.802318 
L 225.798685 287.802318 
L 232.706228 287.847053 
L 239.613772 287.712188 
L 246.521315 287.935872 
L 253.428859 287.712188 
L 260.336402 287.847053 
L 267.243946 288.154192 
L 274.151489 288.197229 
L 281.059033 288.240061 
L 287.966576 288.154192 
L 294.87412 288.197229 
L 301.781663 288.154192 
L 308.689207 288.132596 
L 315.59675 288.110948 
L 322.504294 288.089248 
L 329.411838 288.067495 
L 336.319381 288.04569 
L 343.226925 288.023833 
L 350.134468 288.001922 
L 357.042012 287.979959 
L 363.949555 287.957942 
L 370.857099 287.935872 
L 377.764642 287.913748 
L 384.672186 287.891571 
L 391.579729 287.869339 
L 398.487273 287.847053 
" style="fill:none;stroke:#1f77b4;stroke-linecap:square;stroke-width:1.5;"/>
    <defs>
     <path d="M 0 1.5 
C 0.397805 1.5 0.77937 1.341951 1.06066 1.06066 
C 1.341951 0.77937 1.5 0.397805 1.5 0 
C 1.5 -0.397805 1.341951 -0.77937 1.06066 -1.06066 
C 0.77937 -1.341951 0.397805 -1.5 0 -1.5 
C -0.397805 -1.5 -0.77937 -1.341951 -1.06066 -1.06066 
C -1.341951 -0.77937 -1.5 -0.397805 -1.5 0 
C -1.5 0.397805 -1.341951 0.77937 -1.06066 1.06066 
C -0.77937 1.341951 -0.397805 1.5 0 1.5 
z
" id="m72a0e81d4b" style="stroke:#1f77b4;"/>
    </defs>
    <g clip-path="url(#pfa3ee6a9b3)">
     <use style="fill:#1f77b4;stroke:#1f77b4;" x="73.832727" xlink:href="#m72a0e81d4b" y="295.488"/>
     <use style="fill:#1f77b4;stroke:#1f77b4;" x="80.740271" xlink:href="#m72a0e81d4b" y="292.529146"/>
     <use style="fill:#1f77b4;stroke:#1f77b4;" x="87.647814" xlink:href="#m72a0e81d4b" y="291.318362"/>
     <use style="fill:#1f77b4;stroke:#1f77b4;" x="94.555358" xlink:href="#m72a0e81d4b" y="290.580169"/>
     <use style="fill:#1f77b4;stroke:#1f77b4;" x="101.462901" xlink:href="#m72a0e81d4b" y="290.045797"/>
     <use style="fill:#1f77b4;stroke:#1f77b4;" x="108.370445" xlink:href="#m72a0e81d4b" y="289.436298"/>
     <use style="fill:#1f77b4;stroke:#1f77b4;" x="115.277988" xlink:href="#m72a0e81d4b" y="289.055718"/>
     <use style="fill:#1f77b4;stroke:#1f77b4;" x="122.185532" xlink:href="#m72a0e81d4b" y="288.93814"/>
     <use style="fill:#1f77b4;stroke:#1f77b4;" x="129.093075" xlink:href="#m72a0e81d4b" y="292.40447"/>
     <use style="fill:#1f77b4;stroke:#1f77b4;" x="136.000619" xlink:href="#m72a0e81d4b" y="289.835824"/>
     <use style="fill:#1f77b4;stroke:#1f77b4;" x="142.908162" xlink:href="#m72a0e81d4b" y="288.534253"/>
     <use style="fill:#1f77b4;stroke:#1f77b4;" x="149.815706" xlink:href="#m72a0e81d4b" y="288.325114"/>
     <use style="fill:#1f77b4;stroke:#1f77b4;" x="156.72325" xlink:href="#m72a0e81d4b" y="288.240061"/>
     <use style="fill:#1f77b4;stroke:#1f77b4;" x="163.630793" xlink:href="#m72a0e81d4b" y="288.325114"/>
     <use style="fill:#1f77b4;stroke:#1f77b4;" x="170.538337" xlink:href="#m72a0e81d4b" y="288.154192"/>
     <use style="fill:#1f77b4;stroke:#1f77b4;" x="177.44588" xlink:href="#m72a0e81d4b" y="288.110948"/>
     <use style="fill:#1f77b4;stroke:#1f77b4;" x="184.353424" xlink:href="#m72a0e81d4b" y="288.023833"/>
     <use style="fill:#1f77b4;stroke:#1f77b4;" x="191.260967" xlink:href="#m72a0e81d4b" y="287.979959"/>
     <use style="fill:#1f77b4;stroke:#1f77b4;" x="198.168511" xlink:href="#m72a0e81d4b" y="287.891571"/>
     <use style="fill:#1f77b4;stroke:#1f77b4;" x="205.076054" xlink:href="#m72a0e81d4b" y="288.023833"/>
     <use style="fill:#1f77b4;stroke:#1f77b4;" x="211.983598" xlink:href="#m72a0e81d4b" y="287.979959"/>
     <use style="fill:#1f77b4;stroke:#1f77b4;" x="218.891141" xlink:href="#m72a0e81d4b" y="287.802318"/>
     <use style="fill:#1f77b4;stroke:#1f77b4;" x="225.798685" xlink:href="#m72a0e81d4b" y="287.802318"/>
     <use style="fill:#1f77b4;stroke:#1f77b4;" x="232.706228" xlink:href="#m72a0e81d4b" y="287.847053"/>
     <use style="fill:#1f77b4;stroke:#1f77b4;" x="239.613772" xlink:href="#m72a0e81d4b" y="287.712188"/>
     <use style="fill:#1f77b4;stroke:#1f77b4;" x="246.521315" xlink:href="#m72a0e81d4b" y="287.935872"/>
     <use style="fill:#1f77b4;stroke:#1f77b4;" x="253.428859" xlink:href="#m72a0e81d4b" y="287.712188"/>
     <use style="fill:#1f77b4;stroke:#1f77b4;" x="260.336402" xlink:href="#m72a0e81d4b" y="287.847053"/>
     <use style="fill:#1f77b4;stroke:#1f77b4;" x="267.243946" xlink:href="#m72a0e81d4b" y="288.154192"/>
     <use style="fill:#1f77b4;stroke:#1f77b4;" x="274.151489" xlink:href="#m72a0e81d4b" y="288.197229"/>
     <use style="fill:#1f77b4;stroke:#1f77b4;" x="281.059033" xlink:href="#m72a0e81d4b" y="288.240061"/>
     <use style="fill:#1f77b4;stroke:#1f77b4;" x="287.966576" xlink:href="#m72a0e81d4b" y="288.154192"/>
     <use style="fill:#1f77b4;stroke:#1f77b4;" x="294.87412" xlink:href="#m72a0e81d4b" y="288.197229"/>
     <use style="fill:#1f77b4;stroke:#1f77b4;" x="301.781663" xlink:href="#m72a0e81d4b" y="288.154192"/>
     <use style="fill:#1f77b4;stroke:#1f77b4;" x="308.689207" xlink:href="#m72a0e81d4b" y="288.132596"/>
     <use style="fill:#1f77b4;stroke:#1f77b4;" x="315.59675" xlink:href="#m72a0e81d4b" y="288.110948"/>
     <use style="fill:#1f77b4;stroke:#1f77b4;" x="322.504294" xlink:href="#m72a0e81d4b" y="288.089248"/>
     <use style="fill:#1f77b4;stroke:#1f77b4;" x="329.411838" xlink:href="#m72a0e81d4b" y="288.067495"/>
     <use style="fill:#1f77b4;stroke:#1f77b4;" x="336.319381" xlink:href="#m72a0e81d4b" y="288.04569"/>
     <use style="fill:#1f77b4;stroke:#1f77b4;" x="343.226925" xlink:href="#m72a0e81d4b" y="288.023833"/>
     <use style="fill:#1f77b4;stroke:#1f77b4;" x="350.134468" xlink:href="#m72a0e81d4b" y="288.001922"/>
     <use style="fill:#1f77b4;stroke:#1f77b4;" x="357.042012" xlink:href="#m72a0e81d4b" y="287.979959"/>
     <use style="fill:#1f77b4;stroke:#1f77b4;" x="363.949555" xlink:href="#m72a0e81d4b" y="287.957942"/>
     <use style="fill:#1f77b4;stroke:#1f77b4;" x="370.857099" xlink:href="#m72a0e81d4b" y="287.935872"/>
     <use style="fill:#1f77b4;stroke:#1f77b4;" x="377.764642" xlink:href="#m72a0e81d4b" y="287.913748"/>
     <use style="fill:#1f77b4;stroke:#1f77b4;" x="384.672186" xlink:href="#m72a0e81d4b" y="287.891571"/>
     <use style="fill:#1f77b4;stroke:#1f77b4;" x="391.579729" xlink:href="#m72a0e81d4b" y="287.869339"/>
     <use style="fill:#1f77b4;stroke:#1f77b4;" x="398.487273" xlink:href="#m72a0e81d4b" y="287.847053"/>
    </g>
   </g>
   <g id="line2d_24">
    <path clip-path="url(#pfa3ee6a9b3)" d="M 73.832727 295.488 
L 80.740271 292.915686 
L 87.647814 292.846655 
L 94.555358 292.535975 
L 101.462901 290.080358 
L 108.370445 291.372413 
L 115.277988 292.7769 
L 122.185532 292.398338 
L 129.093075 290.840112 
L 136.000619 290.317318 
L 142.908162 290.029564 
L 149.815706 290.665811 
L 156.72325 294.787511 
L 163.630793 294.837899 
L 170.538337 294.806459 
L 177.44588 294.806459 
L 184.353424 294.819056 
L 191.260967 294.825344 
L 198.168511 294.918833 
L 205.076054 294.894054 
L 211.983598 294.931182 
L 218.891141 294.900259 
L 225.798685 294.894054 
L 232.706228 294.900259 
L 239.613772 294.894054 
L 246.521315 294.75579 
L 253.428859 294.717489 
L 260.336402 294.80015 
L 267.243946 294.793834 
L 274.151489 294.869165 
L 281.059033 294.793834 
L 287.966576 294.869165 
L 294.87412 295.041109 
L 301.781663 294.806459 
L 308.689207 294.825344 
L 315.59675 294.862926 
L 322.504294 294.812761 
L 329.411838 294.937346 
L 336.319381 294.819056 
L 343.226925 294.7685 
L 350.134468 294.812761 
L 357.042012 294.831625 
L 363.949555 294.887842 
L 370.857099 294.787511 
L 377.764642 294.787511 
L 384.672186 294.806459 
L 391.579729 294.825344 
L 398.487273 294.819056 
" style="fill:none;stroke:#ff7f0e;stroke-dasharray:5.55,2.4;stroke-dashoffset:0;stroke-width:1.5;"/>
   </g>
   <g id="line2d_25">
    <path clip-path="url(#pfa3ee6a9b3)" d="M 73.832727 295.488 
L 80.740271 285.992622 
L 87.647814 277.394223 
L 94.555358 267.78307 
L 101.462901 263.066594 
L 108.370445 255.996681 
L 115.277988 249.143612 
L 122.185532 242.518899 
L 129.093075 233.555178 
L 136.000619 231.914759 
L 142.908162 229.084915 
L 149.815706 229.310233 
L 156.72325 227.469909 
L 163.630793 226.030754 
L 170.538337 226.030754 
L 177.44588 222.988488 
L 184.353424 214.265909 
L 191.260967 214.586041 
L 198.168511 217.36989 
L 205.076054 215.53319 
L 211.983598 214.265909 
L 218.891141 212.631072 
L 225.798685 210.937002 
L 232.706228 209.890774 
L 239.613772 209.536903 
L 246.521315 209.890774 
L 253.428859 200.61338 
L 260.336402 209.18042 
L 267.243946 205.465351 
L 274.151489 208.821297 
L 281.059033 208.09501 
L 287.966576 202.281844 
L 294.87412 205.849619 
L 301.781663 205.465351 
L 308.689207 201.869694 
L 315.59675 204.687911 
L 322.504294 206.609423 
L 329.411838 206.230966 
L 336.319381 206.609423 
L 343.226925 203.898372 
L 350.134468 203.096447 
L 357.042012 202.281844 
L 363.949555 201.454259 
L 370.857099 200.61338 
L 377.764642 199.758883 
L 384.672186 198.890435 
L 391.579729 198.007692 
L 398.487273 197.110297 
" style="fill:none;stroke:#2ca02c;stroke-dasharray:1.5,2.475;stroke-dashoffset:0;stroke-width:1.5;"/>
    <defs>
     <path d="M -0.49999 0.49999 
L 0.50001 0.49999 
L 0.50001 -0.50001 
L -0.49999 -0.50001 
z
" id="mf50c6a9811"/>
    </defs>
    <g clip-path="url(#pfa3ee6a9b3)">
     <use style="fill:#2ca02c;" x="73.832727" xlink:href="#mf50c6a9811" y="295.488"/>
     <use style="fill:#2ca02c;" x="80.740271" xlink:href="#mf50c6a9811" y="285.992622"/>
     <use style="fill:#2ca02c;" x="87.647814" xlink:href="#mf50c6a9811" y="277.394223"/>
     <use style="fill:#2ca02c;" x="94.555358" xlink:href="#mf50c6a9811" y="267.78307"/>
     <use style="fill:#2ca02c;" x="101.462901" xlink:href="#mf50c6a9811" y="263.066594"/>
     <use style="fill:#2ca02c;" x="108.370445" xlink:href="#mf50c6a9811" y="255.996681"/>
     <use style="fill:#2ca02c;" x="115.277988" xlink:href="#mf50c6a9811" y="249.143612"/>
     <use style="fill:#2ca02c;" x="122.185532" xlink:href="#mf50c6a9811" y="242.518899"/>
     <use style="fill:#2ca02c;" x="129.093075" xlink:href="#mf50c6a9811" y="233.555178"/>
     <use style="fill:#2ca02c;" x="136.000619" xlink:href="#mf50c6a9811" y="231.914759"/>
     <use style="fill:#2ca02c;" x="142.908162" xlink:href="#mf50c6a9811" y="229.084915"/>
     <use style="fill:#2ca02c;" x="149.815706" xlink:href="#mf50c6a9811" y="229.310233"/>
     <use style="fill:#2ca02c;" x="156.72325" xlink:href="#mf50c6a9811" y="227.469909"/>
     <use style="fill:#2ca02c;" x="163.630793" xlink:href="#mf50c6a9811" y="226.030754"/>
     <use style="fill:#2ca02c;" x="170.538337" xlink:href="#mf50c6a9811" y="226.030754"/>
     <use style="fill:#2ca02c;" x="177.44588" xlink:href="#mf50c6a9811" y="222.988488"/>
     <use style="fill:#2ca02c;" x="184.353424" xlink:href="#mf50c6a9811" y="214.265909"/>
     <use style="fill:#2ca02c;" x="191.260967" xlink:href="#mf50c6a9811" y="214.586041"/>
     <use style="fill:#2ca02c;" x="198.168511" xlink:href="#mf50c6a9811" y="217.36989"/>
     <use style="fill:#2ca02c;" x="205.076054" xlink:href="#mf50c6a9811" y="215.53319"/>
     <use style="fill:#2ca02c;" x="211.983598" xlink:href="#mf50c6a9811" y="214.265909"/>
     <use style="fill:#2ca02c;" x="218.891141" xlink:href="#mf50c6a9811" y="212.631072"/>
     <use style="fill:#2ca02c;" x="225.798685" xlink:href="#mf50c6a9811" y="210.937002"/>
     <use style="fill:#2ca02c;" x="232.706228" xlink:href="#mf50c6a9811" y="209.890774"/>
     <use style="fill:#2ca02c;" x="239.613772" xlink:href="#mf50c6a9811" y="209.536903"/>
     <use style="fill:#2ca02c;" x="246.521315" xlink:href="#mf50c6a9811" y="209.890774"/>
     <use style="fill:#2ca02c;" x="253.428859" xlink:href="#mf50c6a9811" y="200.61338"/>
     <use style="fill:#2ca02c;" x="260.336402" xlink:href="#mf50c6a9811" y="209.18042"/>
     <use style="fill:#2ca02c;" x="267.243946" xlink:href="#mf50c6a9811" y="205.465351"/>
     <use style="fill:#2ca02c;" x="274.151489" xlink:href="#mf50c6a9811" y="208.821297"/>
     <use style="fill:#2ca02c;" x="281.059033" xlink:href="#mf50c6a9811" y="208.09501"/>
     <use style="fill:#2ca02c;" x="287.966576" xlink:href="#mf50c6a9811" y="202.281844"/>
     <use style="fill:#2ca02c;" x="294.87412" xlink:href="#mf50c6a9811" y="205.849619"/>
     <use style="fill:#2ca02c;" x="301.781663" xlink:href="#mf50c6a9811" y="205.465351"/>
     <use style="fill:#2ca02c;" x="308.689207" xlink:href="#mf50c6a9811" y="201.869694"/>
     <use style="fill:#2ca02c;" x="315.59675" xlink:href="#mf50c6a9811" y="204.687911"/>
     <use style="fill:#2ca02c;" x="322.504294" xlink:href="#mf50c6a9811" y="206.609423"/>
     <use style="fill:#2ca02c;" x="329.411838" xlink:href="#mf50c6a9811" y="206.230966"/>
     <use style="fill:#2ca02c;" x="336.319381" xlink:href="#mf50c6a9811" y="206.609423"/>
     <use style="fill:#2ca02c;" x="343.226925" xlink:href="#mf50c6a9811" y="203.898372"/>
     <use style="fill:#2ca02c;" x="350.134468" xlink:href="#mf50c6a9811" y="203.096447"/>
     <use style="fill:#2ca02c;" x="357.042012" xlink:href="#mf50c6a9811" y="202.281844"/>
     <use style="fill:#2ca02c;" x="363.949555" xlink:href="#mf50c6a9811" y="201.454259"/>
     <use style="fill:#2ca02c;" x="370.857099" xlink:href="#mf50c6a9811" y="200.61338"/>
     <use style="fill:#2ca02c;" x="377.764642" xlink:href="#mf50c6a9811" y="199.758883"/>
     <use style="fill:#2ca02c;" x="384.672186" xlink:href="#mf50c6a9811" y="198.890435"/>
     <use style="fill:#2ca02c;" x="391.579729" xlink:href="#mf50c6a9811" y="198.007692"/>
     <use style="fill:#2ca02c;" x="398.487273" xlink:href="#mf50c6a9811" y="197.110297"/>
    </g>
   </g>
   <g id="line2d_26">
    <path clip-path="url(#pfa3ee6a9b3)" d="M 73.832727 295.488 
L 80.740271 285.356311 
L 87.647814 275.952473 
L 94.555358 270.920594 
L 101.462901 264.225285 
L 108.370445 262.038235 
L 115.277988 260.856838 
L 122.185532 259.610409 
L 129.093075 257.837711 
L 136.000619 254.38728 
L 142.908162 257.37323 
L 149.815706 251.604675 
L 156.72325 255.422409 
L 163.630793 257.837711 
L 170.538337 254.910073 
L 177.44588 251.604675 
L 184.353424 234.705245 
L 191.260967 245.033703 
L 198.168511 241.116393 
L 205.076054 217.158948 
L 211.983598 218.693169 
L 218.891141 229.293238 
L 225.798685 234.705245 
L 232.706228 231.553547 
L 239.613772 235.697447 
L 246.521315 222.994016 
L 253.428859 204.701077 
L 260.336402 230.44026 
L 267.243946 218.693169 
L 274.151489 224.335141 
L 281.059033 230.44026 
L 287.966576 230.44026 
L 294.87412 228.110923 
L 301.781663 218.693169 
L 308.689207 217.158948 
L 315.59675 206.690149 
L 322.504294 218.693169 
L 329.411838 221.608188 
L 336.319381 217.158948 
L 343.226925 208.602718 
L 350.134468 202.630818 
L 357.042012 198.226013 
L 363.949555 176.089043 
L 370.857099 185.378664 
L 377.764642 188.187154 
L 384.672186 179.34041 
L 391.579729 172.666551 
L 398.487273 169.059059 
" style="fill:none;stroke:#d62728;stroke-dasharray:9.6,2.4,1.5,2.4;stroke-dashoffset:0;stroke-width:1.5;"/>
    <defs>
     <path d="M 0 1.5 
C 0.397805 1.5 0.77937 1.341951 1.06066 1.06066 
C 1.341951 0.77937 1.5 0.397805 1.5 0 
C 1.5 -0.397805 1.341951 -0.77937 1.06066 -1.06066 
C 0.77937 -1.341951 0.397805 -1.5 0 -1.5 
C -0.397805 -1.5 -0.77937 -1.341951 -1.06066 -1.06066 
C -1.341951 -0.77937 -1.5 -0.397805 -1.5 0 
C -1.5 0.397805 -1.341951 0.77937 -1.06066 1.06066 
C -0.77937 1.341951 -0.397805 1.5 0 1.5 
z
" id="mafac2d6b02" style="stroke:#d62728;"/>
    </defs>
    <g clip-path="url(#pfa3ee6a9b3)">
     <use style="fill:#d62728;stroke:#d62728;" x="73.832727" xlink:href="#mafac2d6b02" y="295.488"/>
     <use style="fill:#d62728;stroke:#d62728;" x="80.740271" xlink:href="#mafac2d6b02" y="285.356311"/>
     <use style="fill:#d62728;stroke:#d62728;" x="87.647814" xlink:href="#mafac2d6b02" y="275.952473"/>
     <use style="fill:#d62728;stroke:#d62728;" x="94.555358" xlink:href="#mafac2d6b02" y="270.920594"/>
     <use style="fill:#d62728;stroke:#d62728;" x="101.462901" xlink:href="#mafac2d6b02" y="264.225285"/>
     <use style="fill:#d62728;stroke:#d62728;" x="108.370445" xlink:href="#mafac2d6b02" y="262.038235"/>
     <use style="fill:#d62728;stroke:#d62728;" x="115.277988" xlink:href="#mafac2d6b02" y="260.856838"/>
     <use style="fill:#d62728;stroke:#d62728;" x="122.185532" xlink:href="#mafac2d6b02" y="259.610409"/>
     <use style="fill:#d62728;stroke:#d62728;" x="129.093075" xlink:href="#mafac2d6b02" y="257.837711"/>
     <use style="fill:#d62728;stroke:#d62728;" x="136.000619" xlink:href="#mafac2d6b02" y="254.38728"/>
     <use style="fill:#d62728;stroke:#d62728;" x="142.908162" xlink:href="#mafac2d6b02" y="257.37323"/>
     <use style="fill:#d62728;stroke:#d62728;" x="149.815706" xlink:href="#mafac2d6b02" y="251.604675"/>
     <use style="fill:#d62728;stroke:#d62728;" x="156.72325" xlink:href="#mafac2d6b02" y="255.422409"/>
     <use style="fill:#d62728;stroke:#d62728;" x="163.630793" xlink:href="#mafac2d6b02" y="257.837711"/>
     <use style="fill:#d62728;stroke:#d62728;" x="170.538337" xlink:href="#mafac2d6b02" y="254.910073"/>
     <use style="fill:#d62728;stroke:#d62728;" x="177.44588" xlink:href="#mafac2d6b02" y="251.604675"/>
     <use style="fill:#d62728;stroke:#d62728;" x="184.353424" xlink:href="#mafac2d6b02" y="234.705245"/>
     <use style="fill:#d62728;stroke:#d62728;" x="191.260967" xlink:href="#mafac2d6b02" y="245.033703"/>
     <use style="fill:#d62728;stroke:#d62728;" x="198.168511" xlink:href="#mafac2d6b02" y="241.116393"/>
     <use style="fill:#d62728;stroke:#d62728;" x="205.076054" xlink:href="#mafac2d6b02" y="217.158948"/>
     <use style="fill:#d62728;stroke:#d62728;" x="211.983598" xlink:href="#mafac2d6b02" y="218.693169"/>
     <use style="fill:#d62728;stroke:#d62728;" x="218.891141" xlink:href="#mafac2d6b02" y="229.293238"/>
     <use style="fill:#d62728;stroke:#d62728;" x="225.798685" xlink:href="#mafac2d6b02" y="234.705245"/>
     <use style="fill:#d62728;stroke:#d62728;" x="232.706228" xlink:href="#mafac2d6b02" y="231.553547"/>
     <use style="fill:#d62728;stroke:#d62728;" x="239.613772" xlink:href="#mafac2d6b02" y="235.697447"/>
     <use style="fill:#d62728;stroke:#d62728;" x="246.521315" xlink:href="#mafac2d6b02" y="222.994016"/>
     <use style="fill:#d62728;stroke:#d62728;" x="253.428859" xlink:href="#mafac2d6b02" y="204.701077"/>
     <use style="fill:#d62728;stroke:#d62728;" x="260.336402" xlink:href="#mafac2d6b02" y="230.44026"/>
     <use style="fill:#d62728;stroke:#d62728;" x="267.243946" xlink:href="#mafac2d6b02" y="218.693169"/>
     <use style="fill:#d62728;stroke:#d62728;" x="274.151489" xlink:href="#mafac2d6b02" y="224.335141"/>
     <use style="fill:#d62728;stroke:#d62728;" x="281.059033" xlink:href="#mafac2d6b02" y="230.44026"/>
     <use style="fill:#d62728;stroke:#d62728;" x="287.966576" xlink:href="#mafac2d6b02" y="230.44026"/>
     <use style="fill:#d62728;stroke:#d62728;" x="294.87412" xlink:href="#mafac2d6b02" y="228.110923"/>
     <use style="fill:#d62728;stroke:#d62728;" x="301.781663" xlink:href="#mafac2d6b02" y="218.693169"/>
     <use style="fill:#d62728;stroke:#d62728;" x="308.689207" xlink:href="#mafac2d6b02" y="217.158948"/>
     <use style="fill:#d62728;stroke:#d62728;" x="315.59675" xlink:href="#mafac2d6b02" y="206.690149"/>
     <use style="fill:#d62728;stroke:#d62728;" x="322.504294" xlink:href="#mafac2d6b02" y="218.693169"/>
     <use style="fill:#d62728;stroke:#d62728;" x="329.411838" xlink:href="#mafac2d6b02" y="221.608188"/>
     <use style="fill:#d62728;stroke:#d62728;" x="336.319381" xlink:href="#mafac2d6b02" y="217.158948"/>
     <use style="fill:#d62728;stroke:#d62728;" x="343.226925" xlink:href="#mafac2d6b02" y="208.602718"/>
     <use style="fill:#d62728;stroke:#d62728;" x="350.134468" xlink:href="#mafac2d6b02" y="202.630818"/>
     <use style="fill:#d62728;stroke:#d62728;" x="357.042012" xlink:href="#mafac2d6b02" y="198.226013"/>
     <use style="fill:#d62728;stroke:#d62728;" x="363.949555" xlink:href="#mafac2d6b02" y="176.089043"/>
     <use style="fill:#d62728;stroke:#d62728;" x="370.857099" xlink:href="#mafac2d6b02" y="185.378664"/>
     <use style="fill:#d62728;stroke:#d62728;" x="377.764642" xlink:href="#mafac2d6b02" y="188.187154"/>
     <use style="fill:#d62728;stroke:#d62728;" x="384.672186" xlink:href="#mafac2d6b02" y="179.34041"/>
     <use style="fill:#d62728;stroke:#d62728;" x="391.579729" xlink:href="#mafac2d6b02" y="172.666551"/>
     <use style="fill:#d62728;stroke:#d62728;" x="398.487273" xlink:href="#mafac2d6b02" y="169.059059"/>
    </g>
   </g>
   <g id="line2d_27">
    <path clip-path="url(#pfa3ee6a9b3)" d="M 73.832727 295.488 
L 80.740271 285.145556 
L 87.647814 275.107962 
L 94.555358 265.45374 
L 101.462901 256.23721 
L 108.370445 247.025157 
L 115.277988 238.753685 
L 122.185532 230.185756 
L 129.093075 222.065755 
L 136.000619 213.957344 
L 142.908162 206.250442 
L 149.815706 198.459804 
L 156.72325 191.717163 
L 163.630793 184.31309 
L 170.538337 177.235791 
L 177.44588 169.885776 
L 184.353424 163.307805 
L 191.260967 157.498688 
L 198.168511 151.197028 
L 205.076054 145.175782 
L 211.983598 139.565639 
L 218.891141 133.069557 
L 225.798685 128.110411 
L 232.706228 121.770945 
L 239.613772 116.711936 
L 246.521315 114.373271 
L 253.428859 111.97614 
L 260.336402 109.518323 
L 267.243946 106.997484 
L 274.151489 104.411169 
L 281.059033 101.756793 
L 287.966576 103.75406 
L 294.87412 99.719714 
L 301.781663 96.232821 
L 308.689207 94.083563 
L 315.59675 88.893279 
L 322.504294 85.027612 
L 329.411838 82.641467 
L 336.319381 79.37866 
L 343.226925 76.019177 
L 350.134468 72.558657 
L 357.042012 70.789073 
L 363.949555 67.168232 
L 370.857099 64.378635 
L 377.764642 60.556262 
L 384.672186 58.599389 
L 391.579729 55.604901 
L 398.487273 53.568 
" style="fill:none;stroke:#9467bd;stroke-linecap:square;stroke-width:1.5;"/>
   </g>
   <g id="line2d_28">
    <path clip-path="url(#pfa3ee6a9b3)" d="M 73.832727 295.488 
L 80.740271 286.036264 
L 87.647814 276.926612 
L 94.555358 268.184065 
L 101.462901 261.010222 
L 108.370445 253.421053 
L 115.277988 245.965715 
L 122.185532 238.210035 
L 129.093075 232.596868 
L 136.000619 228.841731 
L 142.908162 220.970636 
L 149.815706 217.393241 
L 156.72325 212.592685 
L 163.630793 203.590937 
L 170.538337 197.783041 
L 177.44588 191.359202 
L 184.353424 186.880492 
L 191.260967 195.790031 
L 198.168511 186.292264 
L 205.076054 184.003067 
L 211.983598 171.406358 
L 218.891141 177.606915 
L 225.798685 175.358558 
L 232.706228 164.24659 
L 239.613772 176.716913 
L 246.521315 185.128368 
L 253.428859 172.296938 
L 260.336402 174.365612 
L 267.243946 180.497996 
L 274.151489 189.148618 
L 281.059033 172.001389 
L 287.966576 167.366545 
L 294.87412 167.088593 
L 301.781663 177.094952 
L 308.689207 174.29411 
L 315.59675 163.62241 
L 322.504294 164.824247 
L 329.411838 173.863463 
L 336.319381 162.569815 
L 343.226925 161.156348 
L 350.134468 169.088541 
L 357.042012 168.272042 
L 363.949555 167.445756 
L 370.857099 155.306453 
L 377.764642 165.233987 
L 384.672186 156.927364 
L 391.579729 153.218083 
L 398.487273 155.072016 
" style="fill:none;stroke:#8c564b;stroke-dasharray:5.55,2.4;stroke-dashoffset:0;stroke-width:1.5;"/>
    <defs>
     <path d="M -0.49999 0.49999 
L 0.50001 0.49999 
L 0.50001 -0.50001 
L -0.49999 -0.50001 
z
" id="m630c61e7c6"/>
    </defs>
    <g clip-path="url(#pfa3ee6a9b3)">
     <use style="fill:#8c564b;" x="73.832727" xlink:href="#m630c61e7c6" y="295.488"/>
     <use style="fill:#8c564b;" x="80.740271" xlink:href="#m630c61e7c6" y="286.036264"/>
     <use style="fill:#8c564b;" x="87.647814" xlink:href="#m630c61e7c6" y="276.926612"/>
     <use style="fill:#8c564b;" x="94.555358" xlink:href="#m630c61e7c6" y="268.184065"/>
     <use style="fill:#8c564b;" x="101.462901" xlink:href="#m630c61e7c6" y="261.010222"/>
     <use style="fill:#8c564b;" x="108.370445" xlink:href="#m630c61e7c6" y="253.421053"/>
     <use style="fill:#8c564b;" x="115.277988" xlink:href="#m630c61e7c6" y="245.965715"/>
     <use style="fill:#8c564b;" x="122.185532" xlink:href="#m630c61e7c6" y="238.210035"/>
     <use style="fill:#8c564b;" x="129.093075" xlink:href="#m630c61e7c6" y="232.596868"/>
     <use style="fill:#8c564b;" x="136.000619" xlink:href="#m630c61e7c6" y="228.841731"/>
     <use style="fill:#8c564b;" x="142.908162" xlink:href="#m630c61e7c6" y="220.970636"/>
     <use style="fill:#8c564b;" x="149.815706" xlink:href="#m630c61e7c6" y="217.393241"/>
     <use style="fill:#8c564b;" x="156.72325" xlink:href="#m630c61e7c6" y="212.592685"/>
     <use style="fill:#8c564b;" x="163.630793" xlink:href="#m630c61e7c6" y="203.590937"/>
     <use style="fill:#8c564b;" x="170.538337" xlink:href="#m630c61e7c6" y="197.783041"/>
     <use style="fill:#8c564b;" x="177.44588" xlink:href="#m630c61e7c6" y="191.359202"/>
     <use style="fill:#8c564b;" x="184.353424" xlink:href="#m630c61e7c6" y="186.880492"/>
     <use style="fill:#8c564b;" x="191.260967" xlink:href="#m630c61e7c6" y="195.790031"/>
     <use style="fill:#8c564b;" x="198.168511" xlink:href="#m630c61e7c6" y="186.292264"/>
     <use style="fill:#8c564b;" x="205.076054" xlink:href="#m630c61e7c6" y="184.003067"/>
     <use style="fill:#8c564b;" x="211.983598" xlink:href="#m630c61e7c6" y="171.406358"/>
     <use style="fill:#8c564b;" x="218.891141" xlink:href="#m630c61e7c6" y="177.606915"/>
     <use style="fill:#8c564b;" x="225.798685" xlink:href="#m630c61e7c6" y="175.358558"/>
     <use style="fill:#8c564b;" x="232.706228" xlink:href="#m630c61e7c6" y="164.24659"/>
     <use style="fill:#8c564b;" x="239.613772" xlink:href="#m630c61e7c6" y="176.716913"/>
     <use style="fill:#8c564b;" x="246.521315" xlink:href="#m630c61e7c6" y="185.128368"/>
     <use style="fill:#8c564b;" x="253.428859" xlink:href="#m630c61e7c6" y="172.296938"/>
     <use style="fill:#8c564b;" x="260.336402" xlink:href="#m630c61e7c6" y="174.365612"/>
     <use style="fill:#8c564b;" x="267.243946" xlink:href="#m630c61e7c6" y="180.497996"/>
     <use style="fill:#8c564b;" x="274.151489" xlink:href="#m630c61e7c6" y="189.148618"/>
     <use style="fill:#8c564b;" x="281.059033" xlink:href="#m630c61e7c6" y="172.001389"/>
     <use style="fill:#8c564b;" x="287.966576" xlink:href="#m630c61e7c6" y="167.366545"/>
     <use style="fill:#8c564b;" x="294.87412" xlink:href="#m630c61e7c6" y="167.088593"/>
     <use style="fill:#8c564b;" x="301.781663" xlink:href="#m630c61e7c6" y="177.094952"/>
     <use style="fill:#8c564b;" x="308.689207" xlink:href="#m630c61e7c6" y="174.29411"/>
     <use style="fill:#8c564b;" x="315.59675" xlink:href="#m630c61e7c6" y="163.62241"/>
     <use style="fill:#8c564b;" x="322.504294" xlink:href="#m630c61e7c6" y="164.824247"/>
     <use style="fill:#8c564b;" x="329.411838" xlink:href="#m630c61e7c6" y="173.863463"/>
     <use style="fill:#8c564b;" x="336.319381" xlink:href="#m630c61e7c6" y="162.569815"/>
     <use style="fill:#8c564b;" x="343.226925" xlink:href="#m630c61e7c6" y="161.156348"/>
     <use style="fill:#8c564b;" x="350.134468" xlink:href="#m630c61e7c6" y="169.088541"/>
     <use style="fill:#8c564b;" x="357.042012" xlink:href="#m630c61e7c6" y="168.272042"/>
     <use style="fill:#8c564b;" x="363.949555" xlink:href="#m630c61e7c6" y="167.445756"/>
     <use style="fill:#8c564b;" x="370.857099" xlink:href="#m630c61e7c6" y="155.306453"/>
     <use style="fill:#8c564b;" x="377.764642" xlink:href="#m630c61e7c6" y="165.233987"/>
     <use style="fill:#8c564b;" x="384.672186" xlink:href="#m630c61e7c6" y="156.927364"/>
     <use style="fill:#8c564b;" x="391.579729" xlink:href="#m630c61e7c6" y="153.218083"/>
     <use style="fill:#8c564b;" x="398.487273" xlink:href="#m630c61e7c6" y="155.072016"/>
    </g>
   </g>
   <g id="line2d_29">
    <path clip-path="url(#pfa3ee6a9b3)" d="M 73.832727 295.488 
L 80.740271 286.867999 
L 87.647814 279.216641 
L 94.555358 272.749845 
L 101.462901 267.013503 
L 108.370445 259.86471 
L 115.277988 257.783719 
L 122.185532 253.641857 
L 129.093075 250.613132 
L 136.000619 243.459673 
L 142.908162 244.446197 
L 149.815706 240.408116 
L 156.72325 233.524238 
L 163.630793 236.659043 
L 170.538337 230.753705 
L 177.44588 228.190734 
L 184.353424 230.365884 
L 191.260967 228.477189 
L 198.168511 221.498965 
L 205.076054 219.088771 
L 211.983598 219.05758 
L 218.891141 216.305458 
L 225.798685 215.619541 
L 232.706228 215.162092 
L 239.613772 214.90595 
L 246.521315 213.267365 
L 253.428859 211.679118 
L 260.336402 212.117638 
L 267.243946 212.153998 
L 274.151489 209.308093 
L 281.059033 219.492235 
L 287.966576 210.357544 
L 294.87412 203.1751 
L 301.781663 203.868346 
L 308.689207 210.149477 
L 315.59675 211.050832 
L 322.504294 209.997588 
L 329.411838 203.087783 
L 336.319381 201.71518 
L 343.226925 204.637173 
L 350.134468 199.117111 
L 357.042012 198.691276 
L 363.949555 200.466577 
L 370.857099 198.070163 
L 377.764642 197.490421 
L 384.672186 197.344513 
L 391.579729 207.279606 
L 398.487273 198.381615 
" style="fill:none;stroke:#e377c2;stroke-dasharray:1.5,2.475;stroke-dashoffset:0;stroke-width:1.5;"/>
    <defs>
     <path d="M 0 1.5 
C 0.397805 1.5 0.77937 1.341951 1.06066 1.06066 
C 1.341951 0.77937 1.5 0.397805 1.5 0 
C 1.5 -0.397805 1.341951 -0.77937 1.06066 -1.06066 
C 0.77937 -1.341951 0.397805 -1.5 0 -1.5 
C -0.397805 -1.5 -0.77937 -1.341951 -1.06066 -1.06066 
C -1.341951 -0.77937 -1.5 -0.397805 -1.5 0 
C -1.5 0.397805 -1.341951 0.77937 -1.06066 1.06066 
C -0.77937 1.341951 -0.397805 1.5 0 1.5 
z
" id="m0fa281890c" style="stroke:#e377c2;"/>
    </defs>
    <g clip-path="url(#pfa3ee6a9b3)">
     <use style="fill:#e377c2;stroke:#e377c2;" x="73.832727" xlink:href="#m0fa281890c" y="295.488"/>
     <use style="fill:#e377c2;stroke:#e377c2;" x="80.740271" xlink:href="#m0fa281890c" y="286.867999"/>
     <use style="fill:#e377c2;stroke:#e377c2;" x="87.647814" xlink:href="#m0fa281890c" y="279.216641"/>
     <use style="fill:#e377c2;stroke:#e377c2;" x="94.555358" xlink:href="#m0fa281890c" y="272.749845"/>
     <use style="fill:#e377c2;stroke:#e377c2;" x="101.462901" xlink:href="#m0fa281890c" y="267.013503"/>
     <use style="fill:#e377c2;stroke:#e377c2;" x="108.370445" xlink:href="#m0fa281890c" y="259.86471"/>
     <use style="fill:#e377c2;stroke:#e377c2;" x="115.277988" xlink:href="#m0fa281890c" y="257.783719"/>
     <use style="fill:#e377c2;stroke:#e377c2;" x="122.185532" xlink:href="#m0fa281890c" y="253.641857"/>
     <use style="fill:#e377c2;stroke:#e377c2;" x="129.093075" xlink:href="#m0fa281890c" y="250.613132"/>
     <use style="fill:#e377c2;stroke:#e377c2;" x="136.000619" xlink:href="#m0fa281890c" y="243.459673"/>
     <use style="fill:#e377c2;stroke:#e377c2;" x="142.908162" xlink:href="#m0fa281890c" y="244.446197"/>
     <use style="fill:#e377c2;stroke:#e377c2;" x="149.815706" xlink:href="#m0fa281890c" y="240.408116"/>
     <use style="fill:#e377c2;stroke:#e377c2;" x="156.72325" xlink:href="#m0fa281890c" y="233.524238"/>
     <use style="fill:#e377c2;stroke:#e377c2;" x="163.630793" xlink:href="#m0fa281890c" y="236.659043"/>
     <use style="fill:#e377c2;stroke:#e377c2;" x="170.538337" xlink:href="#m0fa281890c" y="230.753705"/>
     <use style="fill:#e377c2;stroke:#e377c2;" x="177.44588" xlink:href="#m0fa281890c" y="228.190734"/>
     <use style="fill:#e377c2;stroke:#e377c2;" x="184.353424" xlink:href="#m0fa281890c" y="230.365884"/>
     <use style="fill:#e377c2;stroke:#e377c2;" x="191.260967" xlink:href="#m0fa281890c" y="228.477189"/>
     <use style="fill:#e377c2;stroke:#e377c2;" x="198.168511" xlink:href="#m0fa281890c" y="221.498965"/>
     <use style="fill:#e377c2;stroke:#e377c2;" x="205.076054" xlink:href="#m0fa281890c" y="219.088771"/>
     <use style="fill:#e377c2;stroke:#e377c2;" x="211.983598" xlink:href="#m0fa281890c" y="219.05758"/>
     <use style="fill:#e377c2;stroke:#e377c2;" x="218.891141" xlink:href="#m0fa281890c" y="216.305458"/>
     <use style="fill:#e377c2;stroke:#e377c2;" x="225.798685" xlink:href="#m0fa281890c" y="215.619541"/>
     <use style="fill:#e377c2;stroke:#e377c2;" x="232.706228" xlink:href="#m0fa281890c" y="215.162092"/>
     <use style="fill:#e377c2;stroke:#e377c2;" x="239.613772" xlink:href="#m0fa281890c" y="214.90595"/>
     <use style="fill:#e377c2;stroke:#e377c2;" x="246.521315" xlink:href="#m0fa281890c" y="213.267365"/>
     <use style="fill:#e377c2;stroke:#e377c2;" x="253.428859" xlink:href="#m0fa281890c" y="211.679118"/>
     <use style="fill:#e377c2;stroke:#e377c2;" x="260.336402" xlink:href="#m0fa281890c" y="212.117638"/>
     <use style="fill:#e377c2;stroke:#e377c2;" x="267.243946" xlink:href="#m0fa281890c" y="212.153998"/>
     <use style="fill:#e377c2;stroke:#e377c2;" x="274.151489" xlink:href="#m0fa281890c" y="209.308093"/>
     <use style="fill:#e377c2;stroke:#e377c2;" x="281.059033" xlink:href="#m0fa281890c" y="219.492235"/>
     <use style="fill:#e377c2;stroke:#e377c2;" x="287.966576" xlink:href="#m0fa281890c" y="210.357544"/>
     <use style="fill:#e377c2;stroke:#e377c2;" x="294.87412" xlink:href="#m0fa281890c" y="203.1751"/>
     <use style="fill:#e377c2;stroke:#e377c2;" x="301.781663" xlink:href="#m0fa281890c" y="203.868346"/>
     <use style="fill:#e377c2;stroke:#e377c2;" x="308.689207" xlink:href="#m0fa281890c" y="210.149477"/>
     <use style="fill:#e377c2;stroke:#e377c2;" x="315.59675" xlink:href="#m0fa281890c" y="211.050832"/>
     <use style="fill:#e377c2;stroke:#e377c2;" x="322.504294" xlink:href="#m0fa281890c" y="209.997588"/>
     <use style="fill:#e377c2;stroke:#e377c2;" x="329.411838" xlink:href="#m0fa281890c" y="203.087783"/>
     <use style="fill:#e377c2;stroke:#e377c2;" x="336.319381" xlink:href="#m0fa281890c" y="201.71518"/>
     <use style="fill:#e377c2;stroke:#e377c2;" x="343.226925" xlink:href="#m0fa281890c" y="204.637173"/>
     <use style="fill:#e377c2;stroke:#e377c2;" x="350.134468" xlink:href="#m0fa281890c" y="199.117111"/>
     <use style="fill:#e377c2;stroke:#e377c2;" x="357.042012" xlink:href="#m0fa281890c" y="198.691276"/>
     <use style="fill:#e377c2;stroke:#e377c2;" x="363.949555" xlink:href="#m0fa281890c" y="200.466577"/>
     <use style="fill:#e377c2;stroke:#e377c2;" x="370.857099" xlink:href="#m0fa281890c" y="198.070163"/>
     <use style="fill:#e377c2;stroke:#e377c2;" x="377.764642" xlink:href="#m0fa281890c" y="197.490421"/>
     <use style="fill:#e377c2;stroke:#e377c2;" x="384.672186" xlink:href="#m0fa281890c" y="197.344513"/>
     <use style="fill:#e377c2;stroke:#e377c2;" x="391.579729" xlink:href="#m0fa281890c" y="207.279606"/>
     <use style="fill:#e377c2;stroke:#e377c2;" x="398.487273" xlink:href="#m0fa281890c" y="198.381615"/>
    </g>
   </g>
   <g id="patch_3">
    <path d="M 57.6 307.584 
L 57.6 41.472 
" style="fill:none;stroke:#000000;stroke-linecap:square;stroke-linejoin:miter;stroke-width:0.8;"/>
   </g>
   <g id="patch_4">
    <path d="M 414.72 307.584 
L 414.72 41.472 
" style="fill:none;stroke:#000000;stroke-linecap:square;stroke-linejoin:miter;stroke-width:0.8;"/>
   </g>
   <g id="patch_5">
    <path d="M 57.6 307.584 
L 414.72 307.584 
" style="fill:none;stroke:#000000;stroke-linecap:square;stroke-linejoin:miter;stroke-width:0.8;"/>
   </g>
   <g id="patch_6">
    <path d="M 57.6 41.472 
L 414.72 41.472 
" style="fill:none;stroke:#000000;stroke-linecap:square;stroke-linejoin:miter;stroke-width:0.8;"/>
   </g>
   <g id="legend_1">
    <g id="patch_7">
     <path d="M 64.6 152.775125 
L 148.109375 152.775125 
Q 150.109375 152.775125 150.109375 150.775125 
L 150.109375 48.472 
Q 150.109375 46.472 148.109375 46.472 
L 64.6 46.472 
Q 62.6 46.472 62.6 48.472 
L 62.6 150.775125 
Q 62.6 152.775125 64.6 152.775125 
z
" style="fill:#ffffff;opacity:0.8;stroke:#cccccc;stroke-linejoin:miter;"/>
    </g>
    <g id="line2d_30">
     <path d="M 66.6 54.570438 
L 86.6 54.570438 
" style="fill:none;stroke:#1f77b4;stroke-linecap:square;stroke-width:1.5;"/>
    </g>
    <g id="line2d_31">
     <g>
      <use style="fill:#1f77b4;stroke:#1f77b4;" x="76.6" xlink:href="#m72a0e81d4b" y="54.570438"/>
     </g>
    </g>
    <g id="text_14">
     <!-- sphere3 -->
     <g transform="translate(94.6 58.070438)scale(0.1 -0.1)">
      <use xlink:href="#DejaVuSans-115"/>
      <use x="52.099609" xlink:href="#DejaVuSans-112"/>
      <use x="115.576172" xlink:href="#DejaVuSans-104"/>
      <use x="178.955078" xlink:href="#DejaVuSans-101"/>
      <use x="240.478516" xlink:href="#DejaVuSans-114"/>
      <use x="279.341797" xlink:href="#DejaVuSans-101"/>
      <use x="340.865234" xlink:href="#DejaVuSans-51"/>
     </g>
    </g>
    <g id="line2d_32">
     <path d="M 66.6 69.248563 
L 86.6 69.248563 
" style="fill:none;stroke:#ff7f0e;stroke-dasharray:5.55,2.4;stroke-dashoffset:0;stroke-width:1.5;"/>
    </g>
    <g id="line2d_33"/>
    <g id="text_15">
     <!-- dragon -->
     <defs>
      <path d="M 45.40625 27.984375 
Q 45.40625 37.75 41.375 43.109375 
Q 37.359375 48.484375 30.078125 48.484375 
Q 22.859375 48.484375 18.828125 43.109375 
Q 14.796875 37.75 14.796875 27.984375 
Q 14.796875 18.265625 18.828125 12.890625 
Q 22.859375 7.515625 30.078125 7.515625 
Q 37.359375 7.515625 41.375 12.890625 
Q 45.40625 18.265625 45.40625 27.984375 
z
M 54.390625 6.78125 
Q 54.390625 -7.171875 48.1875 -13.984375 
Q 42 -20.796875 29.203125 -20.796875 
Q 24.46875 -20.796875 20.265625 -20.09375 
Q 16.0625 -19.390625 12.109375 -17.921875 
L 12.109375 -9.1875 
Q 16.0625 -11.328125 19.921875 -12.34375 
Q 23.78125 -13.375 27.78125 -13.375 
Q 36.625 -13.375 41.015625 -8.765625 
Q 45.40625 -4.15625 45.40625 5.171875 
L 45.40625 9.625 
Q 42.625 4.78125 38.28125 2.390625 
Q 33.9375 0 27.875 0 
Q 17.828125 0 11.671875 7.65625 
Q 5.515625 15.328125 5.515625 27.984375 
Q 5.515625 40.671875 11.671875 48.328125 
Q 17.828125 56 27.875 56 
Q 33.9375 56 38.28125 53.609375 
Q 42.625 51.21875 45.40625 46.390625 
L 45.40625 54.6875 
L 54.390625 54.6875 
z
" id="DejaVuSans-103"/>
     </defs>
     <g transform="translate(94.6 72.748563)scale(0.1 -0.1)">
      <use xlink:href="#DejaVuSans-100"/>
      <use x="63.476562" xlink:href="#DejaVuSans-114"/>
      <use x="104.589844" xlink:href="#DejaVuSans-97"/>
      <use x="165.869141" xlink:href="#DejaVuSans-103"/>
      <use x="229.345703" xlink:href="#DejaVuSans-111"/>
      <use x="290.527344" xlink:href="#DejaVuSans-110"/>
     </g>
    </g>
    <g id="line2d_34">
     <path d="M 66.6 83.926688 
L 86.6 83.926688 
" style="fill:none;stroke:#2ca02c;stroke-dasharray:1.5,2.475;stroke-dashoffset:0;stroke-width:1.5;"/>
    </g>
    <g id="line2d_35">
     <g>
      <use style="fill:#2ca02c;" x="76.6" xlink:href="#mf50c6a9811" y="83.926688"/>
     </g>
    </g>
    <g id="text_16">
     <!-- o3_1024 -->
     <defs>
      <path d="M 50.984375 -16.609375 
L 50.984375 -23.578125 
L -0.984375 -23.578125 
L -0.984375 -16.609375 
z
" id="DejaVuSans-95"/>
     </defs>
     <g transform="translate(94.6 87.426688)scale(0.1 -0.1)">
      <use xlink:href="#DejaVuSans-111"/>
      <use x="61.181641" xlink:href="#DejaVuSans-51"/>
      <use x="124.804688" xlink:href="#DejaVuSans-95"/>
      <use x="174.804688" xlink:href="#DejaVuSans-49"/>
      <use x="238.427734" xlink:href="#DejaVuSans-48"/>
      <use x="302.050781" xlink:href="#DejaVuSans-50"/>
      <use x="365.673828" xlink:href="#DejaVuSans-52"/>
     </g>
    </g>
    <g id="line2d_36">
     <path d="M 66.6 98.882938 
L 86.6 98.882938 
" style="fill:none;stroke:#d62728;stroke-dasharray:9.6,2.4,1.5,2.4;stroke-dashoffset:0;stroke-width:1.5;"/>
    </g>
    <g id="line2d_37">
     <g>
      <use style="fill:#d62728;stroke:#d62728;" x="76.6" xlink:href="#mafac2d6b02" y="98.882938"/>
     </g>
    </g>
    <g id="text_17">
     <!-- random16 -->
     <defs>
      <path d="M 33.015625 40.375 
Q 26.375 40.375 22.484375 35.828125 
Q 18.609375 31.296875 18.609375 23.390625 
Q 18.609375 15.53125 22.484375 10.953125 
Q 26.375 6.390625 33.015625 6.390625 
Q 39.65625 6.390625 43.53125 10.953125 
Q 47.40625 15.53125 47.40625 23.390625 
Q 47.40625 31.296875 43.53125 35.828125 
Q 39.65625 40.375 33.015625 40.375 
z
M 52.59375 71.296875 
L 52.59375 62.3125 
Q 48.875 64.0625 45.09375 64.984375 
Q 41.3125 65.921875 37.59375 65.921875 
Q 27.828125 65.921875 22.671875 59.328125 
Q 17.53125 52.734375 16.796875 39.40625 
Q 19.671875 43.65625 24.015625 45.921875 
Q 28.375 48.1875 33.59375 48.1875 
Q 44.578125 48.1875 50.953125 41.515625 
Q 57.328125 34.859375 57.328125 23.390625 
Q 57.328125 12.15625 50.6875 5.359375 
Q 44.046875 -1.421875 33.015625 -1.421875 
Q 20.359375 -1.421875 13.671875 8.265625 
Q 6.984375 17.96875 6.984375 36.375 
Q 6.984375 53.65625 15.1875 63.9375 
Q 23.390625 74.21875 37.203125 74.21875 
Q 40.921875 74.21875 44.703125 73.484375 
Q 48.484375 72.75 52.59375 71.296875 
z
" id="DejaVuSans-54"/>
     </defs>
     <g transform="translate(94.6 102.382938)scale(0.1 -0.1)">
      <use xlink:href="#DejaVuSans-114"/>
      <use x="41.113281" xlink:href="#DejaVuSans-97"/>
      <use x="102.392578" xlink:href="#DejaVuSans-110"/>
      <use x="165.771484" xlink:href="#DejaVuSans-100"/>
      <use x="229.248047" xlink:href="#DejaVuSans-111"/>
      <use x="290.429688" xlink:href="#DejaVuSans-109"/>
      <use x="387.841797" xlink:href="#DejaVuSans-49"/>
      <use x="451.464844" xlink:href="#DejaVuSans-54"/>
     </g>
    </g>
    <g id="line2d_38">
     <path d="M 66.6 113.561063 
L 86.6 113.561063 
" style="fill:none;stroke:#9467bd;stroke-linecap:square;stroke-width:1.5;"/>
    </g>
    <g id="line2d_39"/>
    <g id="text_18">
     <!-- fractal -->
     <defs>
      <path d="M 48.78125 52.59375 
L 48.78125 44.1875 
Q 44.96875 46.296875 41.140625 47.34375 
Q 37.3125 48.390625 33.40625 48.390625 
Q 24.65625 48.390625 19.8125 42.84375 
Q 14.984375 37.3125 14.984375 27.296875 
Q 14.984375 17.28125 19.8125 11.734375 
Q 24.65625 6.203125 33.40625 6.203125 
Q 37.3125 6.203125 41.140625 7.25 
Q 44.96875 8.296875 48.78125 10.40625 
L 48.78125 2.09375 
Q 45.015625 0.34375 40.984375 -0.53125 
Q 36.96875 -1.421875 32.421875 -1.421875 
Q 20.0625 -1.421875 12.78125 6.34375 
Q 5.515625 14.109375 5.515625 27.296875 
Q 5.515625 40.671875 12.859375 48.328125 
Q 20.21875 56 33.015625 56 
Q 37.15625 56 41.109375 55.140625 
Q 45.0625 54.296875 48.78125 52.59375 
z
" id="DejaVuSans-99"/>
      <path d="M 9.421875 75.984375 
L 18.40625 75.984375 
L 18.40625 0 
L 9.421875 0 
z
" id="DejaVuSans-108"/>
     </defs>
     <g transform="translate(94.6 117.061063)scale(0.1 -0.1)">
      <use xlink:href="#DejaVuSans-102"/>
      <use x="35.205078" xlink:href="#DejaVuSans-114"/>
      <use x="76.318359" xlink:href="#DejaVuSans-97"/>
      <use x="137.597656" xlink:href="#DejaVuSans-99"/>
      <use x="192.578125" xlink:href="#DejaVuSans-116"/>
      <use x="231.787109" xlink:href="#DejaVuSans-97"/>
      <use x="293.066406" xlink:href="#DejaVuSans-108"/>
     </g>
    </g>
    <g id="line2d_40">
     <path d="M 66.6 128.239188 
L 86.6 128.239188 
" style="fill:none;stroke:#8c564b;stroke-dasharray:5.55,2.4;stroke-dashoffset:0;stroke-width:1.5;"/>
    </g>
    <g id="line2d_41">
     <g>
      <use style="fill:#8c564b;" x="76.6" xlink:href="#m630c61e7c6" y="128.239188"/>
     </g>
    </g>
    <g id="text_19">
     <!-- o3_4096 -->
     <defs>
      <path d="M 10.984375 1.515625 
L 10.984375 10.5 
Q 14.703125 8.734375 18.5 7.8125 
Q 22.3125 6.890625 25.984375 6.890625 
Q 35.75 6.890625 40.890625 13.453125 
Q 46.046875 20.015625 46.78125 33.40625 
Q 43.953125 29.203125 39.59375 26.953125 
Q 35.25 24.703125 29.984375 24.703125 
Q 19.046875 24.703125 12.671875 31.3125 
Q 6.296875 37.9375 6.296875 49.421875 
Q 6.296875 60.640625 12.9375 67.421875 
Q 19.578125 74.21875 30.609375 74.21875 
Q 43.265625 74.21875 49.921875 64.515625 
Q 56.59375 54.828125 56.59375 36.375 
Q 56.59375 19.140625 48.40625 8.859375 
Q 40.234375 -1.421875 26.421875 -1.421875 
Q 22.703125 -1.421875 18.890625 -0.6875 
Q 15.09375 0.046875 10.984375 1.515625 
z
M 30.609375 32.421875 
Q 37.25 32.421875 41.125 36.953125 
Q 45.015625 41.5 45.015625 49.421875 
Q 45.015625 57.28125 41.125 61.84375 
Q 37.25 66.40625 30.609375 66.40625 
Q 23.96875 66.40625 20.09375 61.84375 
Q 16.21875 57.28125 16.21875 49.421875 
Q 16.21875 41.5 20.09375 36.953125 
Q 23.96875 32.421875 30.609375 32.421875 
z
" id="DejaVuSans-57"/>
     </defs>
     <g transform="translate(94.6 131.739188)scale(0.1 -0.1)">
      <use xlink:href="#DejaVuSans-111"/>
      <use x="61.181641" xlink:href="#DejaVuSans-51"/>
      <use x="124.804688" xlink:href="#DejaVuSans-95"/>
      <use x="174.804688" xlink:href="#DejaVuSans-52"/>
      <use x="238.427734" xlink:href="#DejaVuSans-48"/>
      <use x="302.050781" xlink:href="#DejaVuSans-57"/>
      <use x="365.673828" xlink:href="#DejaVuSans-54"/>
     </g>
    </g>
    <g id="line2d_42">
     <path d="M 66.6 143.195438 
L 86.6 143.195438 
" style="fill:none;stroke:#e377c2;stroke-dasharray:1.5,2.475;stroke-dashoffset:0;stroke-width:1.5;"/>
    </g>
    <g id="line2d_43">
     <g>
      <use style="fill:#e377c2;stroke:#e377c2;" x="76.6" xlink:href="#m0fa281890c" y="143.195438"/>
     </g>
    </g>
    <g id="text_20">
     <!-- torus4 -->
     <g transform="translate(94.6 146.695438)scale(0.1 -0.1)">
      <use xlink:href="#DejaVuSans-116"/>
      <use x="39.208984" xlink:href="#DejaVuSans-111"/>
      <use x="100.390625" xlink:href="#DejaVuSans-114"/>
      <use x="141.503906" xlink:href="#DejaVuSans-117"/>
      <use x="204.882812" xlink:href="#DejaVuSans-115"/>
      <use x="256.982422" xlink:href="#DejaVuSans-52"/>
     </g>
    </g>
   </g>
  </g>
 </g>
 <defs>
  <clipPath id="pfa3ee6a9b3">
   <rect height="266.112" width="357.12" x="57.6" y="41.472"/>
  </clipPath>
 </defs>
</svg>
